<svg xmlns="http://www.w3.org/2000/svg" width="1904" height="1069" fill="none"><g filter="url(#a)"><path fill="#FFEC80" d="M1417.88 799.75c173.34 0 313.87-140.527 313.87-313.875S1591.22 172 1417.88 172C1244.53 172 1104 312.527 1104 485.875s140.53 313.875 313.88 313.875Z"/></g><g filter="url(#b)"><path fill="#82FFAB" d="M485.875 799.75c173.348 0 313.875-140.527 313.875-313.875S659.223 172 485.875 172 172 312.527 172 485.875 312.527 799.75 485.875 799.75Z"/></g><g filter="url(#c)"><path fill="#63FAE8" d="M954.431 896.75c173.349 0 313.879-140.527 313.879-313.875S1127.78 269 954.431 269c-173.349 0-313.875 140.527-313.875 313.875S781.082 896.75 954.431 896.75Z"/></g><defs><filter id="a" width="971.75" height="971.75" x="932" y="0" color-interpolation-filters="sRGB" filterUnits="userSpaceOnUse"><feFlood flood-opacity="0" result="BackgroundImageFix"/><feBlend in="SourceGraphic" in2="BackgroundImageFix" result="shape"/><feGaussianBlur result="effect1_foregroundBlur_53_3" stdDeviation="86"/></filter><filter id="b" width="971.75" height="971.75" x="0" y="0" color-interpolation-filters="sRGB" filterUnits="userSpaceOnUse"><feFlood flood-opacity="0" result="BackgroundImageFix"/><feBlend in="SourceGraphic" in2="BackgroundImageFix" result="shape"/><feGaussianBlur result="effect1_foregroundBlur_53_3" stdDeviation="86"/></filter><filter id="c" width="971.75" height="971.75" x="468.556" y="97" color-interpolation-filters="sRGB" filterUnits="userSpaceOnUse"><feFlood flood-opacity="0" result="BackgroundImageFix"/><feBlend in="SourceGraphic" in2="BackgroundImageFix" result="shape"/><feGaussianBlur result="effect1_foregroundBlur_53_3" stdDeviation="86"/></filter></defs></svg>