<svg xmlns="http://www.w3.org/2000/svg" width="56" height="56" fill="none"><rect width="56" height="56" fill="#111" rx="8"/><g clip-path="url(#a)"><path fill="url(#b)" d="M43.393 28.003c0-1.934-2.554-3.767-6.47-4.904.904-3.785.502-6.796-1.267-7.76-.408-.226-.885-.333-1.406-.333v1.327c.289 0 .52.054.715.155.854.464 1.224 2.231.935 4.505a17.47 17.47 0 0 1-.32 1.75 31.91 31.91 0 0 0-3.984-.65c-.848-1.1-1.726-2.1-2.61-2.975 2.045-1.803 3.965-2.79 5.27-2.79V15c-1.725 0-3.984 1.166-6.268 3.19-2.285-2.012-4.544-3.166-6.27-3.166v1.327c1.3 0 3.226.982 5.272 2.773a28.516 28.516 0 0 0-2.592 2.97 30.755 30.755 0 0 0-3.99.654 17.092 17.092 0 0 1-.327-1.726c-.295-2.273.069-4.04.916-4.51.188-.108.433-.155.722-.155V15.03c-.527 0-1.004.107-1.419.333-1.763.964-2.158 3.97-1.248 7.742-3.903 1.143-6.445 2.97-6.445 4.898 0 1.934 2.554 3.767 6.47 4.904-.904 3.785-.502 6.796 1.267 7.76.408.226.885.333 1.412.333 1.726 0 3.985-1.166 6.27-3.19 2.283 2.012 4.542 3.166 6.268 3.166.527 0 1.004-.107 1.418-.333 1.763-.964 2.159-3.97 1.249-7.742 3.89-1.137 6.432-2.97 6.432-4.898Zm-8.17-3.97c-.233.768-.521 1.56-.847 2.351a27.75 27.75 0 0 0-.822-1.428c-.29-.476-.597-.94-.904-1.392.89.125 1.75.28 2.573.47Zm-2.874 6.338c-.49.804-.992 1.566-1.513 2.274a34.357 34.357 0 0 1-5.66.006 32.58 32.58 0 0 1-1.518-2.262 30.63 30.63 0 0 1-1.306-2.368 31.52 31.52 0 0 1 2.811-4.648 34.403 34.403 0 0 1 5.66-.006 30.616 30.616 0 0 1 2.825 4.63 32.737 32.737 0 0 1-1.3 2.374Zm2.027-.773c.338.797.627 1.595.866 2.368a29.55 29.55 0 0 1-2.586.476c.308-.458.615-.928.904-1.41.288-.476.558-.958.816-1.434Zm-6.363 6.35a24.976 24.976 0 0 1-1.745-1.905c.565.024 1.142.042 1.726.042.59 0 1.173-.012 1.744-.042a23.622 23.622 0 0 1-1.725 1.905Zm-4.67-3.506c-.89-.124-1.75-.28-2.572-.47.232-.767.521-1.559.847-2.35.258.476.527.952.822 1.428.295.476.596.94.904 1.392Zm4.638-12.384a24.957 24.957 0 0 1 1.745 1.905A40.966 40.966 0 0 0 28 21.92c-.59 0-1.174.012-1.744.042a23.624 23.624 0 0 1 1.725-1.905Zm-4.643 3.506a32.785 32.785 0 0 0-1.72 2.838 24.615 24.615 0 0 1-.866-2.368 32.008 32.008 0 0 1 2.586-.47Zm-5.68 7.45C15.439 30.116 14 28.937 14 28.003c0-.934 1.437-2.119 3.659-3.011.54-.22 1.13-.417 1.738-.601.358 1.166.828 2.38 1.412 3.624a27.254 27.254 0 0 0-1.393 3.606 19.746 19.746 0 0 1-1.757-.607Zm3.377 8.504c-.854-.464-1.224-2.231-.935-4.505.069-.56.182-1.148.32-1.75 1.23.286 2.572.507 3.984.65a29.457 29.457 0 0 0 2.61 2.975c-2.045 1.803-3.965 2.79-5.27 2.79a1.558 1.558 0 0 1-.71-.16Zm14.884-4.535c.295 2.274-.069 4.041-.916 4.511-.188.108-.433.155-.722.155-1.299 0-3.225-.982-5.27-2.773a28.495 28.495 0 0 0 2.591-2.97 30.772 30.772 0 0 0 3.99-.654 15.9 15.9 0 0 1 .327 1.731Zm2.416-3.969c-.54.22-1.13.417-1.738.601a27.656 27.656 0 0 0-1.412-3.624 27.258 27.258 0 0 0 1.393-3.606c.621.184 1.211.386 1.763.607C40.563 25.89 42 27.069 42 28.003c-.007.934-1.444 2.119-3.665 3.011Z"/><path fill="url(#c)" d="M27.994 30.723c1.584 0 2.867-1.218 2.867-2.72 0-1.502-1.284-2.72-2.867-2.72-1.584 0-2.868 1.218-2.868 2.72 0 1.502 1.284 2.72 2.868 2.72Z"/></g><defs><linearGradient id="b" x1="12.007" x2="35.977" y1="15.84" y2="36.006" gradientUnits="userSpaceOnUse"><stop stop-color="#FCFB65"/><stop offset="1" stop-color="#63FAEE"/></linearGradient><linearGradient id="c" x1="25.014" x2="29.899" y1="25.459" y2="29.119" gradientUnits="userSpaceOnUse"><stop stop-color="#FCFB65"/><stop offset="1" stop-color="#63FAEE"/></linearGradient><clipPath id="a"><path fill="#fff" d="M12 15h32v26H12z"/></clipPath></defs></svg>